<?xml version="1.0" encoding="UTF-8" standalone="no"?>
<!DOCTYPE svg PUBLIC "-//W3C//DTD SVG 1.1//EN" "http://www.w3.org/Graphics/SVG/1.1/DTD/svg11.dtd">
<svg width="100%" height="100%" viewBox="0 0 300 300" version="1.1" xmlns="http://www.w3.org/2000/svg" xmlns:xlink="http://www.w3.org/1999/xlink" xml:space="preserve" xmlns:serif="http://www.serif.com/" style="fill-rule:evenodd;clip-rule:evenodd;stroke-linejoin:round;stroke-miterlimit:2;">
    <g transform="matrix(6.53726e-17,1.06762,-1.06762,6.53726e-17,300,7.10543e-15)">
        <path d="M160.843,1.48C147.353,-0.493 133.647,-0.493 120.157,1.48L115.632,33.214C103.809,35.954 92.52,40.63 82.221,47.053L56.583,27.814C45.648,35.957 35.957,45.648 27.814,56.583L47.053,82.221C40.63,92.52 35.954,103.809 33.214,115.632L1.48,120.157C-0.493,133.647 -0.493,147.353 1.48,160.843L33.214,165.368C35.954,177.191 40.63,188.48 47.053,198.779L27.814,224.417C35.957,235.352 45.648,245.043 56.583,253.186L82.221,233.947C92.52,240.37 103.809,245.046 115.632,247.786L120.157,279.52C133.647,281.493 147.353,281.493 160.843,279.52L165.368,247.786C177.191,245.046 188.48,240.37 198.779,233.947L224.417,253.186C235.352,245.043 245.043,235.352 253.186,224.417L233.947,198.779C240.37,188.48 245.046,177.191 247.786,165.368L279.52,160.843C281.493,147.353 281.493,133.647 279.52,120.157L247.786,115.632C245.046,103.809 240.37,92.52 233.947,82.221L253.186,56.583C245.043,45.648 235.352,35.957 224.417,27.814L198.779,47.053C188.48,40.63 177.191,35.954 165.368,33.214L160.843,1.48ZM140.5,84.217C171.564,84.217 196.783,109.436 196.783,140.5C196.783,171.564 171.564,196.783 140.5,196.783C109.436,196.783 84.217,171.564 84.217,140.5C84.217,109.436 109.436,84.217 140.5,84.217Z"/>
    </g>
</svg>
