<?xml version="1.0" encoding="UTF-8" standalone="no"?>
<!DOCTYPE svg PUBLIC "-//W3C//DTD SVG 1.1//EN" "http://www.w3.org/Graphics/SVG/1.1/DTD/svg11.dtd">
<svg width="100%" height="100%" viewBox="0 0 2627 311" version="1.1" xmlns="http://www.w3.org/2000/svg" xmlns:xlink="http://www.w3.org/1999/xlink" xml:space="preserve" xmlns:serif="http://www.serif.com/" style="fill-rule:evenodd;clip-rule:evenodd;stroke-linejoin:round;stroke-miterlimit:2;">
    <g transform="matrix(0.103443,0,0,0.103443,0,0)">
        <path d="M0,800C0,292.91 292.91,0 800,0L2200,0C2706.78,0 3000,293.215 3000,800L3000,2200C3000,2706.29 2706.29,3000 2200,3000L0,3000L0,1500L450,1500C450,2078 922,2550 1500,2550C2078,2550 2550,2078 2550,1500C2550,922 2083,450 1500,450C917,450 450,917 450,1500L0,1500L0,800Z"/>
    </g>
    <g transform="matrix(32.3412,0,0,32.3412,-41821.8,-37399.1)">
        <path d="M1309.18,1157.09C1307.69,1157.09 1306.55,1157.96 1306.55,1159.33C1306.55,1160.45 1307.34,1161.1 1308.47,1161.61L1309.32,1162C1309.95,1162.28 1310.33,1162.46 1310.33,1162.98C1310.33,1163.53 1309.9,1163.86 1309.2,1163.86C1308.26,1163.86 1307.69,1163.3 1307.26,1162.7L1306.14,1163.54C1306.73,1164.6 1307.84,1165.3 1309.2,1165.3C1310.78,1165.3 1311.98,1164.39 1311.98,1162.92C1311.98,1161.79 1311.27,1161.15 1310.02,1160.6L1309.12,1160.21C1308.54,1159.94 1308.2,1159.75 1308.2,1159.3C1308.2,1158.77 1308.65,1158.53 1309.18,1158.53C1309.83,1158.53 1310.31,1158.86 1310.69,1159.44L1311.8,1158.59C1311.33,1157.72 1310.44,1157.09 1309.18,1157.09Z" style="fill-rule:nonzero;"/>
    </g>
    <g transform="matrix(32.3412,0,0,32.3412,-41814.6,-37399.1)">
        <path d="M1316.38,1157.23L1313.4,1157.23L1313.4,1165.15L1315.02,1165.15L1315.02,1162.36L1316.38,1162.36C1318.05,1162.36 1319.24,1161.31 1319.24,1159.79C1319.24,1158.24 1318.05,1157.23 1316.38,1157.23ZM1316.38,1158.66C1317.14,1158.66 1317.58,1159.13 1317.58,1159.79C1317.58,1160.47 1317.14,1160.94 1316.38,1160.94L1315.02,1160.94L1315.02,1158.66L1316.38,1158.66Z" style="fill-rule:nonzero;"/>
    </g>
    <g transform="matrix(32.3412,0,0,32.3412,-41803.2,-37399.1)">
        <path d="M1324.28,1157.09C1321.95,1157.09 1320.08,1158.86 1320.08,1161.19C1320.08,1163.52 1321.95,1165.3 1324.28,1165.3C1326.6,1165.3 1328.5,1163.52 1328.5,1161.19C1328.5,1158.86 1326.6,1157.09 1324.28,1157.09ZM1324.29,1158.59C1325.74,1158.59 1326.83,1159.67 1326.83,1161.19C1326.83,1162.73 1325.74,1163.8 1324.29,1163.8C1322.81,1163.8 1321.74,1162.73 1321.74,1161.19C1321.74,1159.67 1322.81,1158.59 1324.29,1158.59Z" style="fill-rule:nonzero;"/>
    </g>
    <g transform="matrix(32.3412,0,0,32.3412,-41794.1,-37399.1)">
        <path d="M1336.55,1165.15L1334.31,1162.03C1335.16,1161.61 1335.7,1160.81 1335.7,1159.79C1335.7,1158.24 1334.51,1157.23 1332.84,1157.23L1329.87,1157.23L1329.87,1165.15L1331.49,1165.15L1331.49,1162.36L1332.68,1162.36L1334.73,1165.15L1336.55,1165.15ZM1331.49,1158.66L1332.84,1158.66C1333.6,1158.66 1334.04,1159.13 1334.04,1159.79C1334.04,1160.47 1333.6,1160.93 1332.84,1160.93L1331.49,1160.93L1331.49,1158.66Z" style="fill-rule:nonzero;"/>
    </g>
    <g transform="matrix(32.3412,0,0,32.3412,-41771.8,-37399.1)">
        <path d="M1343.2,1157.23L1336.5,1157.23L1336.5,1158.69L1339.04,1158.69L1339.04,1165.15L1340.66,1165.15L1340.66,1158.69L1343.2,1158.69L1343.2,1157.23Z" style="fill-rule:nonzero;"/>
    </g>
    <g transform="matrix(32.3412,0,0,32.3412,-41758.6,-37399.1)">
        <path d="M1346.75,1157.09C1345.26,1157.09 1344.12,1157.96 1344.12,1159.33C1344.12,1160.45 1344.92,1161.1 1346.04,1161.61L1346.9,1162C1347.52,1162.28 1347.9,1162.46 1347.9,1162.98C1347.9,1163.53 1347.47,1163.86 1346.78,1163.86C1345.83,1163.86 1345.26,1163.3 1344.83,1162.7L1343.72,1163.54C1344.3,1164.6 1345.41,1165.3 1346.78,1165.3C1348.35,1165.3 1349.55,1164.39 1349.55,1162.92C1349.55,1161.79 1348.84,1161.15 1347.59,1160.6L1346.69,1160.21C1346.12,1159.94 1345.77,1159.75 1345.77,1159.3C1345.77,1158.77 1346.22,1158.53 1346.75,1158.53C1347.4,1158.53 1347.88,1158.86 1348.26,1159.44L1349.37,1158.59C1348.9,1157.72 1348.01,1157.09 1346.75,1157.09Z" style="fill-rule:nonzero;"/>
    </g>
    <g transform="matrix(32.3412,0,0,32.3412,-41751.4,-37399.1)">
        <path d="M1353.57,1157.23L1350.98,1157.23L1350.98,1165.15L1353.57,1165.15C1356.11,1165.15 1357.89,1163.51 1357.89,1161.17C1357.89,1158.79 1356.11,1157.23 1353.57,1157.23ZM1353.56,1158.69C1355.15,1158.69 1356.22,1159.61 1356.22,1161.17C1356.22,1162.69 1355.15,1163.69 1353.56,1163.69L1352.6,1163.69L1352.6,1158.69L1353.56,1158.69Z" style="fill-rule:nonzero;"/>
    </g>
    <g transform="matrix(32.3412,0,0,32.3412,-41747.6,-37399.1)">
        <path d="M1364.15,1165.15L1365.89,1165.15L1362.36,1157.09L1361.82,1157.09L1358.28,1165.15L1360.02,1165.15L1360.47,1164.12L1363.71,1164.12L1364.15,1165.15ZM1363.13,1162.79L1361.04,1162.79L1362.09,1160.12L1363.13,1162.79Z" style="fill-rule:nonzero;"/>
    </g>
    <g transform="matrix(32.3412,0,0,32.3412,-41755.6,-37399.1)">
        <path d="M1372.32,1157.23L1370.54,1157.23L1368.78,1160.38L1367.04,1157.23L1365.24,1157.23L1367.98,1162.04L1367.98,1165.15L1369.6,1165.15L1369.6,1162.03L1372.32,1157.23Z" style="fill-rule:nonzero;"/>
    </g>
</svg>
