<?xml version="1.0" encoding="UTF-8" standalone="no"?>
<!DOCTYPE svg PUBLIC "-//W3C//DTD SVG 1.1//EN" "http://www.w3.org/Graphics/SVG/1.1/DTD/svg11.dtd">
<svg width="100%" height="100%" viewBox="0 0 2468 343" version="1.1" xmlns="http://www.w3.org/2000/svg" xmlns:xlink="http://www.w3.org/1999/xlink" xml:space="preserve" xmlns:serif="http://www.serif.com/" style="fill-rule:evenodd;clip-rule:evenodd;stroke-linejoin:round;stroke-miterlimit:2;">
    <g transform="matrix(6.3005,0,0,5.23987,1094.37,261.315)">
        <g>
            <path d="M38,-13.65L40.6,-36.3L52.8,-36.3L46.1,0L30.75,0L27.35,-20.25L23.4,0L8.7,0L2,-36.3L14.2,-36.3L16.75,-13.95L20.75,-36.3L34.1,-36.3L38,-13.65Z" style="fill-rule:nonzero;"/>
            <path d="M85.85,-26.35C81.883,-26.55 78.95,-26.667 77.05,-26.7L77.05,-9.6C78.983,-9.633 81.917,-9.75 85.85,-9.95L85.85,0L56.8,0L56.8,-9.95C60.633,-9.75 63.55,-9.633 65.55,-9.6L65.55,-26.7C63.55,-26.667 60.633,-26.55 56.8,-26.35L56.8,-36.3L85.85,-36.3L85.85,-26.35Z" style="fill-rule:nonzero;"/>
            <path d="M105.85,-36.85C112.117,-36.85 117.067,-36.092 120.7,-34.575C124.333,-33.058 126.875,-30.958 128.325,-28.275C129.775,-25.592 130.5,-22.3 130.5,-18.4C130.5,-14.7 129.667,-11.467 128,-8.7C126.333,-5.933 123.833,-3.792 120.5,-2.275C117.167,-0.758 113.067,0 108.2,0L99.15,0C96.083,0 92.983,-0.017 89.85,-0.05C90.117,-6.617 90.25,-12.733 90.25,-18.4C90.25,-24.133 90.117,-30.117 89.85,-36.35C93.817,-36.683 99.15,-36.85 105.85,-36.85ZM109.6,-9.95C112.7,-9.95 114.767,-10.7 115.8,-12.2C116.833,-13.7 117.35,-15.767 117.35,-18.4C117.35,-20.933 116.808,-22.983 115.725,-24.55C114.642,-26.117 112.6,-26.9 109.6,-26.9C106.367,-26.9 103.95,-26.8 102.35,-26.6L102.35,-9.95L109.6,-9.95Z" style="fill-rule:nonzero;"/>
            <path d="M146.3,-9.15C158.967,-9.217 168.15,-9.4 173.85,-9.7C173.617,-8.333 173.475,-6.925 173.425,-5.475C173.375,-4.025 173.35,-2.2 173.35,0L134.5,0C134.767,-6.467 134.9,-12.517 134.9,-18.15C134.9,-23.783 134.767,-29.833 134.5,-36.3L173.35,-36.3L173.35,-27.25L146.3,-27.25L146.3,-22.45C147.9,-22.417 150.267,-22.4 153.4,-22.4C158.7,-22.4 164.183,-22.5 169.85,-22.7L169.85,-14.1C164.183,-14.3 158.7,-14.4 153.4,-14.4C150.267,-14.4 147.9,-14.383 146.3,-14.35L146.3,-9.15Z" style="fill-rule:nonzero;"/>
            <path d="M218,-24.2C218,-21.3 217.292,-18.85 215.875,-16.85C214.458,-14.85 212.033,-13.4 208.6,-12.5C209,-11.967 209.283,-11.55 209.45,-11.25L217.55,0L203.95,0C202.483,-2.733 200.167,-6.6 197,-11.6L189.65,-11.6L189.65,0L177.85,0C178.117,-6.467 178.25,-12.517 178.25,-18.15C178.25,-23.783 178.117,-29.833 177.85,-36.3L189.65,-36.3L189.65,-36.25L199.9,-36.25C206.633,-36.25 211.333,-35.167 214,-33C216.667,-30.833 218,-27.9 218,-24.2ZM189.65,-26.65L189.65,-20.95L196.4,-20.95C199.233,-20.95 201.375,-21.042 202.825,-21.225C204.275,-21.408 205.283,-21.7 205.85,-22.1C206.417,-22.5 206.7,-23.083 206.7,-23.85C206.7,-24.583 206.433,-25.15 205.9,-25.55C205.367,-25.95 204.367,-26.233 202.9,-26.4C201.433,-26.567 199.267,-26.65 196.4,-26.65L189.65,-26.65Z" style="fill-rule:nonzero;"/>
        </g>
    </g>
    <g transform="matrix(0.477983,0,0,0.477983,-198.773,-545.5)">
        <path d="M1500,1141.25L557.734,1141.25C475.188,1141.25 415.858,1193.59 415.858,1276.13L416.166,1693.18C416.166,1798.57 494.302,1858.71 599.694,1858.71L1500,1858.75L1500,1688C1230.21,1686.53 881.226,1620.85 681.504,1542.97C611.713,1515.75 610,1516 610,1313C610,1299.53 619.627,1287.91 636.094,1287.91L1045,1287.91C1057.07,1287.79 1065.42,1290.61 1070,1301L1135.03,1430.15C1138.28,1436.01 1144.44,1437.05 1149.43,1431.27L1251,1302C1257.98,1292.26 1264.02,1288 1276,1288L1500,1288L1500,1141.25Z"/>
        <g transform="matrix(-1,0,0,1,3000,0)">
            <path d="M1500,1141.25L557.734,1141.25C475.188,1141.25 415.858,1193.59 415.858,1276.13L416.166,1693.18C416.166,1798.57 494.302,1858.71 599.694,1858.71L1500,1858.75L1500,1688C1230.21,1686.53 881.226,1620.85 681.504,1542.97C611.713,1515.75 610,1516 610,1313C610,1299.53 619.627,1287.91 636.094,1287.91L1045,1287.91C1057.07,1287.79 1065.42,1290.61 1070,1301L1135.03,1430.15C1138.28,1436.01 1144.44,1437.05 1149.43,1431.27L1251,1302C1257.98,1292.26 1264.02,1288 1276,1288L1500,1288L1500,1141.25Z"/>
        </g>
    </g>
</svg>
