<?xml version="1.0" encoding="UTF-8" standalone="no"?>
<!DOCTYPE svg PUBLIC "-//W3C//DTD SVG 1.1//EN" "http://www.w3.org/Graphics/SVG/1.1/DTD/svg11.dtd">
<svg width="100%" height="100%" viewBox="0 0 2209 3000" version="1.1" xmlns="http://www.w3.org/2000/svg" xmlns:xlink="http://www.w3.org/1999/xlink" xml:space="preserve" xmlns:serif="http://www.serif.com/" style="fill-rule:evenodd;clip-rule:evenodd;stroke-linejoin:round;stroke-miterlimit:2;">
    <g transform="matrix(1.83519,0,0,1.60753,-282.881,-1132.41)">
        <path d="M1273,913C1273,842.355 1222.76,785 1160.88,785L396.121,785C334.24,785 284,842.355 284,913L284,1169C284,1239.64 334.24,1297 396.121,1297L1160.88,1297C1222.76,1297 1273,1239.64 1273,1169L1273,913ZM1265.05,913L1265.05,1169C1265.05,1234.64 1218.37,1287.93 1160.88,1287.93L396.121,1287.93C338.626,1287.93 291.947,1234.64 291.947,1169C291.947,1169 291.947,913 291.947,913C291.947,847.362 338.626,794.072 396.121,794.072C396.121,794.072 1160.88,794.072 1160.88,794.072C1218.37,794.072 1265.05,847.362 1265.05,913Z"/>
    </g>
    <g transform="matrix(1.83519,0,0,1.60753,-282.881,-173.438)">
        <path d="M1273,913C1273,842.355 1222.76,785 1160.88,785L396.121,785C334.24,785 284,842.355 284,913L284,1169C284,1239.64 334.24,1297 396.121,1297L1160.88,1297C1222.76,1297 1273,1239.64 1273,1169L1273,913ZM1265.05,913L1265.05,1169C1265.05,1234.64 1218.37,1287.93 1160.88,1287.93C1160.88,1287.93 396.121,1287.93 396.121,1287.93C338.626,1287.93 291.947,1234.64 291.947,1169C291.947,1169 291.947,913 291.947,913C291.947,847.362 338.626,794.072 396.121,794.072L1160.88,794.072C1218.37,794.072 1265.05,847.362 1265.05,913Z"/>
    </g>
    <g transform="matrix(1.83519,0,0,1.60753,-282.881,785.534)">
        <path d="M1273,913C1273,842.355 1222.76,785 1160.88,785L396.121,785C334.24,785 284,842.355 284,913L284,1169C284,1239.64 334.24,1297 396.121,1297L1160.88,1297C1222.76,1297 1273,1239.64 1273,1169L1273,913ZM1265.05,913L1265.05,1169C1265.05,1234.64 1218.37,1287.93 1160.88,1287.93C1160.88,1287.93 396.121,1287.93 396.121,1287.93C338.626,1287.93 291.947,1234.64 291.947,1169C291.947,1169 291.947,913 291.947,913C291.947,847.362 338.626,794.072 396.121,794.072C396.121,794.072 1160.88,794.072 1160.88,794.072C1218.37,794.072 1265.05,847.362 1265.05,913Z"/>
    </g>
    <g transform="matrix(3.16776,0,0,3.16776,-1999.19,809.726)">
        <text x="894.765px" y="539.235px" style="font-family:'SourceHanSans-Regular', 'Source Han Sans', sans-serif;font-size:50px;">コート３</text>
    </g>
    <g transform="matrix(3.16776,0,0,3.16776,-1999.19,-149.246)">
        <text x="894.765px" y="539.235px" style="font-family:'SourceHanSans-Regular', 'Source Han Sans', sans-serif;font-size:50px;">コート２</text>
    </g>
    <g transform="matrix(3.16776,0,0,3.16776,-1999.19,-1108.22)">
        <text x="894.765px" y="539.235px" style="font-family:'SourceHanSans-Regular', 'Source Han Sans', sans-serif;font-size:50px;">コート１</text>
    </g>
    <g transform="matrix(1.05182,0,0,1.02006,-371.291,0)">
        <path d="M2453,0L353,0L353,2941L2453,2941L2453,0ZM2439.14,14.297L2439.14,2926.7C2266.62,2926.7 539.375,2926.7 366.865,2926.7C366.865,2715.24 366.865,225.765 366.865,14.297C547.815,14.297 2439.14,14.297 2439.14,14.297L2439.14,14.297Z"/>
    </g>
    <g transform="matrix(0.736842,0,0,1,2.27374e-13,-354.705)">
        <rect x="0" y="1778" width="152" height="15"/>
    </g>
    <g transform="matrix(0.736842,0,0,1,2.27374e-13,-88.9515)">
        <rect x="0" y="1778" width="152" height="15"/>
    </g>
</svg>
