<?xml version="1.0" encoding="UTF-8" standalone="no"?>
<!DOCTYPE svg PUBLIC "-//W3C//DTD SVG 1.1//EN" "http://www.w3.org/Graphics/SVG/1.1/DTD/svg11.dtd">
<svg width="100%" height="100%" viewBox="0 0 2633 2105" version="1.1" xmlns="http://www.w3.org/2000/svg" xmlns:xlink="http://www.w3.org/1999/xlink" xml:space="preserve" xmlns:serif="http://www.serif.com/" style="fill-rule:evenodd;clip-rule:evenodd;stroke-linejoin:round;stroke-miterlimit:2;">
    <g transform="matrix(1.50543,0,0,1.20336,-141.511,-375.45)">
        <path d="M1843,312L94,312L94,2061L1843,2061L1843,312ZM1833.31,324.119L1833.31,2048.88C1833.31,2048.88 103.687,2048.88 103.687,2048.88C103.687,2048.88 103.687,478.158 103.687,324.119C103.687,324.119 1833.31,324.119 1833.31,324.119L1833.31,324.119Z"/>
    </g>
    <g transform="matrix(1.50543,0,0,0.137988,-141.511,-43.0524)">
        <path d="M1843,312L94,312L94,2061L1843,2061L1843,312ZM1833.31,417.685L1833.31,1955.32C1833.31,1955.32 103.687,1955.32 103.687,1955.32C103.687,1955.32 103.687,417.685 103.687,417.685C103.687,417.685 1833.31,417.685 1833.31,417.685L1833.31,417.685Z"/>
    </g>
    <g transform="matrix(3.16776,0,0,3.16776,-2045.65,-1527.47)">
        <text x="894.765px" y="539.235px" style="font-family:'SourceHanSans-Regular', 'Source Han Sans', sans-serif;font-size:50px;">ステー<tspan x="1043.77px " y="539.235px ">ジ</tspan>(本部)</text>
    </g>
    <g transform="matrix(3.16776,0,0,3.16776,-2569.55,-1083.01)">
        <text x="894.765px" y="539.235px" style="font-family:'SourceHanSans-Regular', 'Source Han Sans', sans-serif;font-size:50px;">コート１</text>
    </g>
    <g transform="matrix(3.16776,0,0,3.16776,-1083.55,-1083.01)">
        <text x="894.765px" y="539.235px" style="font-family:'SourceHanSans-Regular', 'Source Han Sans', sans-serif;font-size:50px;">コート４</text>
    </g>
    <g transform="matrix(3.16776,0,0,3.16776,-2569.55,-486.575)">
        <text x="894.765px" y="539.235px" style="font-family:'SourceHanSans-Regular', 'Source Han Sans', sans-serif;font-size:50px;">コート２</text>
    </g>
    <g transform="matrix(3.16776,0,0,3.16776,-1083.55,-486.575)">
        <text x="894.765px" y="539.235px" style="font-family:'SourceHanSans-Regular', 'Source Han Sans', sans-serif;font-size:50px;">コート５</text>
    </g>
    <g transform="matrix(3.16776,0,0,3.16776,-2569.55,109.863)">
        <text x="894.765px" y="539.235px" style="font-family:'SourceHanSans-Regular', 'Source Han Sans', sans-serif;font-size:50px;">コート３</text>
    </g>
    <g transform="matrix(3.16776,0,0,3.16776,-1083.55,109.863)">
        <text x="894.765px" y="539.235px" style="font-family:'SourceHanSans-Regular', 'Source Han Sans', sans-serif;font-size:50px;">コート６</text>
    </g>
    <g transform="matrix(1,0,0,1.05817,-202.5,-535.319)">
        <path d="M1273,913C1273,842.355 1212.31,785 1137.56,785L419.445,785C344.691,785 284,842.355 284,913L284,1169C284,1239.64 344.691,1297 419.445,1297L1137.56,1297C1212.31,1297 1273,1239.64 1273,1169L1273,913ZM1258.42,913L1258.42,1169C1258.42,1232.04 1204.26,1283.22 1137.56,1283.22L419.445,1283.22C352.74,1283.22 298.583,1232.04 298.583,1169L298.583,913C298.583,849.961 352.74,798.782 419.445,798.782C419.445,798.782 1137.56,798.782 1137.56,798.782C1204.26,798.782 1258.42,849.961 1258.42,913Z"/>
    </g>
    <g transform="matrix(1,0,0,1.05817,1283.5,-535.319)">
        <path d="M1273,913C1273,842.355 1212.31,785 1137.56,785L419.445,785C344.691,785 284,842.355 284,913L284,1169C284,1239.64 344.691,1297 419.445,1297L1137.56,1297C1212.31,1297 1273,1239.64 1273,1169L1273,913ZM1258.42,913L1258.42,1169C1258.42,1232.04 1204.26,1283.22 1137.56,1283.22L419.445,1283.22C352.74,1283.22 298.583,1232.04 298.583,1169C298.583,1169 298.583,913 298.583,913C298.583,849.961 352.74,798.782 419.445,798.782C419.445,798.782 1137.56,798.782 1137.56,798.782C1204.26,798.782 1258.42,849.961 1258.42,913Z"/>
    </g>
    <g transform="matrix(1,0,0,1.05817,-202.5,61.1199)">
        <path d="M1273,913C1273,842.355 1212.31,785 1137.56,785L419.445,785C344.691,785 284,842.355 284,913L284,1169C284,1239.64 344.691,1297 419.445,1297L1137.56,1297C1212.31,1297 1273,1239.64 1273,1169L1273,913ZM1258.42,913L1258.42,1169C1258.42,1232.04 1204.26,1283.22 1137.56,1283.22L419.445,1283.22C352.74,1283.22 298.583,1232.04 298.583,1169L298.583,913C298.583,849.961 352.74,798.782 419.445,798.782L1137.56,798.782C1204.26,798.782 1258.42,849.961 1258.42,913Z"/>
    </g>
    <g transform="matrix(1,0,0,1.05817,1283.5,61.1199)">
        <path d="M1273,913C1273,842.355 1212.31,785 1137.56,785L419.445,785C344.691,785 284,842.355 284,913L284,1169C284,1239.64 344.691,1297 419.445,1297L1137.56,1297C1212.31,1297 1273,1239.64 1273,1169L1273,913ZM1258.42,913L1258.42,1169C1258.42,1232.04 1204.26,1283.22 1137.56,1283.22L419.445,1283.22C352.74,1283.22 298.583,1232.04 298.583,1169C298.583,1169 298.583,913 298.583,913C298.583,849.961 352.74,798.782 419.445,798.782L1137.56,798.782C1204.26,798.782 1258.42,849.961 1258.42,913Z"/>
    </g>
    <g transform="matrix(1,0,0,1.05817,-202.5,657.559)">
        <path d="M1273,913C1273,842.355 1212.31,785 1137.56,785L419.445,785C344.691,785 284,842.355 284,913L284,1169C284,1239.64 344.691,1297 419.445,1297L1137.56,1297C1212.31,1297 1273,1239.64 1273,1169L1273,913ZM1258.42,913L1258.42,1169C1258.42,1232.04 1204.26,1283.22 1137.56,1283.22L419.445,1283.22C352.74,1283.22 298.583,1232.04 298.583,1169L298.583,913C298.583,849.961 352.74,798.782 419.445,798.782L1137.56,798.782C1204.26,798.782 1258.42,849.961 1258.42,913Z"/>
    </g>
    <g transform="matrix(1,0,0,1.05817,1283.5,657.559)">
        <path d="M1273,913C1273,842.355 1212.31,785 1137.56,785L419.445,785C344.691,785 284,842.355 284,913L284,1169C284,1239.64 344.691,1297 419.445,1297L1137.56,1297C1212.31,1297 1273,1239.64 1273,1169L1273,913ZM1258.42,913L1258.42,1169C1258.42,1232.04 1204.26,1283.22 1137.56,1283.22L419.445,1283.22C352.74,1283.22 298.583,1232.04 298.583,1169C298.583,1169 298.583,913 298.583,913C298.583,849.961 352.74,798.782 419.445,798.782L1137.56,798.782C1204.26,798.782 1258.42,849.961 1258.42,913Z"/>
    </g>
</svg>
