<?xml version="1.0" encoding="UTF-8" standalone="no"?>
<!DOCTYPE svg PUBLIC "-//W3C//DTD SVG 1.1//EN" "http://www.w3.org/Graphics/SVG/1.1/DTD/svg11.dtd">
<svg width="100%" height="100%" viewBox="0 0 3000 3000" version="1.1" xmlns="http://www.w3.org/2000/svg" xmlns:xlink="http://www.w3.org/1999/xlink" xml:space="preserve" xmlns:serif="http://www.serif.com/" style="fill-rule:evenodd;clip-rule:evenodd;stroke-linejoin:round;stroke-miterlimit:2;">
    <g transform="matrix(1.03806,0,0,1,-80.9689,78.5)">
        <path d="M2968,357L78,357L78,2486L2968,2486L2968,357ZM2953.95,371.583L2953.95,2471.42C2953.95,2471.42 308.518,2471.42 92.049,2471.42C92.049,2471.42 92.049,371.583 92.049,371.583C299.85,371.583 2746.15,371.583 2953.95,371.583L2953.95,371.583Z"/>
    </g>
    <g transform="matrix(4.51186e-17,-0.736842,1,6.12323e-17,-418.377,2564.5)">
        <rect x="0" y="1778" width="152" height="15"/>
    </g>
    <g transform="matrix(4.51186e-17,-0.736842,1,6.12323e-17,-152.623,2564.5)">
        <rect x="0" y="1778" width="152" height="15"/>
    </g>
    <g transform="matrix(1,0,0,1.05817,1552.43,989.34)">
        <path d="M1273,913C1273,842.355 1212.31,785 1137.56,785L419.445,785C344.691,785 284,842.355 284,913L284,1169C284,1239.64 344.691,1297 419.445,1297L1137.56,1297C1212.31,1297 1273,1239.64 1273,1169L1273,913ZM1258.42,913L1258.42,1169C1258.42,1232.04 1204.26,1283.22 1137.56,1283.22L419.445,1283.22C352.74,1283.22 298.583,1232.04 298.583,1169L298.583,913C298.583,849.961 352.74,798.782 419.445,798.782C419.445,798.782 1137.56,798.782 1137.56,798.782C1204.26,798.782 1258.42,849.961 1258.42,913Z"/>
    </g>
    <g transform="matrix(1,0,0,1.05817,-65.2446,989.34)">
        <path d="M1273,913C1273,842.355 1212.31,785 1137.56,785L419.445,785C344.691,785 284,842.355 284,913L284,1169C284,1239.64 344.691,1297 419.445,1297L1137.56,1297C1212.31,1297 1273,1239.64 1273,1169L1273,913ZM1258.42,913L1258.42,1169C1258.42,1232.04 1204.26,1283.22 1137.56,1283.22L419.445,1283.22C352.74,1283.22 298.583,1232.04 298.583,1169L298.583,913C298.583,849.961 352.74,798.782 419.445,798.782C419.445,798.782 1137.56,798.782 1137.56,798.782C1204.26,798.782 1258.42,849.961 1258.42,913Z"/>
    </g>
    <g transform="matrix(3.16776,0,0,3.16776,-1645,-466.574)">
        <text x="894.765px" y="539.235px" style="font-family:'SourceHanSans-Regular', 'Source Han Sans', sans-serif;font-size:50px;">トラック</text>
    </g>
    <g transform="matrix(3.16776,0,0,3.16776,-2472.37,443.308)">
        <text x="894.765px" y="539.235px" style="font-family:'SourceHanSans-Regular', 'Source Han Sans', sans-serif;font-size:50px;">第1コート</text>
    </g>
    <g transform="matrix(3.16776,0,0,3.16776,-854.69,443.308)">
        <text x="894.765px" y="539.235px" style="font-family:'SourceHanSans-Regular', 'Source Han Sans', sans-serif;font-size:50px;">第2コート</text>
    </g>
</svg>
