<?xml version="1.0" encoding="UTF-8" standalone="no"?>
<!DOCTYPE svg PUBLIC "-//W3C//DTD SVG 1.1//EN" "http://www.w3.org/Graphics/SVG/1.1/DTD/svg11.dtd">
<svg width="100%" height="100%" viewBox="0 0 3000 2105" version="1.1" xmlns="http://www.w3.org/2000/svg" xmlns:xlink="http://www.w3.org/1999/xlink" xml:space="preserve" xmlns:serif="http://www.serif.com/" style="fill-rule:evenodd;clip-rule:evenodd;stroke-linejoin:round;stroke-miterlimit:2;">
    <g transform="matrix(1.71527,0,0,1.20336,-161.235,-375.45)">
        <path d="M1843,312L94,312L94,2061L1843,2061L1843,312ZM1834.5,324.119L1834.5,2048.88C1834.5,2048.88 102.502,2048.88 102.502,2048.88C102.502,2048.88 102.502,478.158 102.502,324.119C102.502,324.119 1834.5,324.119 1834.5,324.119L1834.5,324.119Z"/>
    </g>
    <g transform="matrix(0.565466,0,0,0.0594855,211.846,-18.5595)">
        <path d="M1843,312L94,312L94,2061L1843,2061L1843,312ZM1817.21,557.158L1817.21,1815.84C1617.46,1815.84 319.542,1815.84 119.79,1815.84C119.79,1815.84 119.79,557.158 119.79,557.158C334.488,557.158 1817.21,557.158 1817.21,557.158L1817.21,557.158Z"/>
    </g>
    <g transform="matrix(0.565466,0,0,0.0594855,1600.85,-18.5595)">
        <path d="M1843,312L94,312L94,2061L1843,2061L1843,312ZM1817.21,557.158L1817.21,1815.84C1817.21,1815.84 334.488,1815.84 119.79,1815.84C119.79,1815.84 119.79,557.158 119.79,557.158C319.542,557.158 1617.46,557.158 1817.21,557.158L1817.21,557.158Z"/>
    </g>
    <g transform="matrix(0.565466,0,0,0.0594855,211.846,1982.08)">
        <path d="M1843,312L94,312L94,2061L1843,2061L1843,312ZM1817.21,557.158L1817.21,1815.84C1817.21,1815.84 119.79,1815.84 119.79,1815.84C119.79,1815.84 119.79,557.158 119.79,557.158C119.79,557.158 1817.21,557.158 1817.21,557.158L1817.21,557.158Z"/>
    </g>
    <g transform="matrix(0.565466,0,0,0.0594855,1600.85,1982.08)">
        <path d="M1843,312L94,312L94,2061L1843,2061L1843,312ZM1817.21,557.158L1817.21,1815.84C1617.46,1815.84 319.542,1815.84 119.79,1815.84C119.79,1815.84 119.79,557.158 119.79,557.158C119.79,557.158 1817.21,557.158 1817.21,557.158L1817.21,557.158Z"/>
    </g>
    <g transform="matrix(0.736842,0,0,1,2.27374e-13,-198.658)">
        <rect x="0" y="1778" width="152" height="15"/>
    </g>
    <g transform="matrix(0.736842,0,0,1,2.27374e-13,67.0948)">
        <rect x="0" y="1778" width="152" height="15"/>
    </g>
    <g transform="matrix(3.16776,0,0,3.16776,-2386.05,-1050.17)">
        <text x="894.765px" y="539.235px" style="font-family:'SourceHanSans-Regular', 'Source Han Sans', sans-serif;font-size:50px;">コート１</text>
    </g>
    <g transform="matrix(3.16776,0,0,3.16776,-995.548,-1050.17)">
        <text x="894.765px" y="539.235px" style="font-family:'SourceHanSans-Regular', 'Source Han Sans', sans-serif;font-size:50px;">コート３</text>
    </g>
    <g transform="matrix(3.16776,0,0,3.16776,-2386.05,-150.261)">
        <text x="894.765px" y="539.235px" style="font-family:'SourceHanSans-Regular', 'Source Han Sans', sans-serif;font-size:50px;">コート２</text>
    </g>
    <g transform="matrix(3.16776,0,0,3.16776,-995.548,-150.261)">
        <text x="894.765px" y="539.235px" style="font-family:'SourceHanSans-Regular', 'Source Han Sans', sans-serif;font-size:50px;">コート４</text>
    </g>
    <g transform="matrix(1,0,0,1.39765,-19,-852.568)">
        <path d="M1273,913C1273,842.355 1192.84,785 1094.1,785L462.899,785C364.162,785 284,842.355 284,913L284,1169C284,1239.64 364.162,1297 462.899,1297L1094.1,1297C1192.84,1297 1273,1239.64 1273,1169L1273,913ZM1258.42,913L1258.42,1169C1258.42,1233.89 1184.79,1286.57 1094.1,1286.57L462.899,1286.57C372.211,1286.57 298.583,1233.89 298.583,1169L298.583,913C298.583,848.114 372.211,795.434 462.899,795.434C462.899,795.434 1094.1,795.434 1094.1,795.434C1184.79,795.434 1258.42,848.114 1258.42,913Z"/>
    </g>
    <g transform="matrix(1,0,0,1.39765,1371.5,-852.568)">
        <path d="M1273,913C1273,842.355 1192.84,785 1094.1,785L462.899,785C364.162,785 284,842.355 284,913L284,1169C284,1239.64 364.162,1297 462.899,1297L1094.1,1297C1192.84,1297 1273,1239.64 1273,1169L1273,913ZM1258.42,913L1258.42,1169C1258.42,1233.89 1184.79,1286.57 1094.1,1286.57L462.899,1286.57C372.211,1286.57 298.583,1233.89 298.583,1169L298.583,913C298.583,848.114 372.211,795.434 462.899,795.434C462.899,795.434 1094.1,795.434 1094.1,795.434C1184.79,795.434 1258.42,848.114 1258.42,913Z"/>
    </g>
    <g transform="matrix(1,0,0,1.39765,-19,47.3402)">
        <path d="M1273,913C1273,842.355 1192.84,785 1094.1,785L462.899,785C364.162,785 284,842.355 284,913L284,1169C284,1239.64 364.162,1297 462.899,1297L1094.1,1297C1192.84,1297 1273,1239.64 1273,1169L1273,913ZM1258.42,913L1258.42,1169C1258.42,1233.89 1184.79,1286.57 1094.1,1286.57L462.899,1286.57C372.211,1286.57 298.583,1233.89 298.583,1169L298.583,913C298.583,848.114 372.211,795.434 462.899,795.434C462.899,795.434 1094.1,795.434 1094.1,795.434C1184.79,795.434 1258.42,848.114 1258.42,913Z"/>
    </g>
    <g transform="matrix(1,0,0,1.39765,1371.5,47.3402)">
        <path d="M1273,913C1273,842.355 1192.84,785 1094.1,785L462.899,785C364.162,785 284,842.355 284,913L284,1169C284,1239.64 364.162,1297 462.899,1297L1094.1,1297C1192.84,1297 1273,1239.64 1273,1169L1273,913ZM1258.42,913L1258.42,1169C1258.42,1233.89 1184.79,1286.57 1094.1,1286.57L462.899,1286.57C372.211,1286.57 298.583,1233.89 298.583,1169L298.583,913C298.583,848.114 372.211,795.434 462.899,795.434C462.899,795.434 1094.1,795.434 1094.1,795.434C1184.79,795.434 1258.42,848.114 1258.42,913Z"/>
    </g>
</svg>
